<svg width="130" height="24" viewBox="0 0 130 24" fill="none" xmlns="http://www.w3.org/2000/svg">
<path d="M17.0198 1.92487C18.3451 1.92868 19.615 2.43698 20.5521 3.33876C21.4893 4.24054 22.0175 5.46252 22.0214 6.73783V16.3627C22.0175 17.638 21.4893 18.86 20.5521 19.7618C19.615 20.6635 18.3451 21.1718 17.0198 21.1757H7.0176C5.6923 21.1718 4.42241 20.6635 3.48528 19.7618C2.54814 18.86 2.01992 17.638 2.01596 16.3627V6.73783C2.01992 5.46252 2.54814 4.24054 3.48528 3.33876C4.42241 2.43698 5.6923 1.92868 7.0176 1.92487H17.0198ZM17.0198 0H7.0176C3.16643 0 0.015625 3.03194 0.015625 6.73783V16.3627C0.015625 20.0686 3.16643 23.1005 7.0176 23.1005H17.0198C20.871 23.1005 24.0218 20.0686 24.0218 16.3627V6.73783C24.0218 3.03194 20.871 0 17.0198 0Z" fill="#181818"/>
<path d="M18.5187 6.73815C18.2219 6.73815 17.9318 6.65348 17.6851 6.49483C17.4383 6.33619 17.246 6.1107 17.1325 5.84688C17.0189 5.58306 16.9892 5.29277 17.0471 5.0127C17.105 4.73264 17.2479 4.47538 17.4577 4.27346C17.6676 4.07154 17.9349 3.93404 18.2259 3.87833C18.517 3.82262 18.8187 3.85121 19.0928 3.96049C19.367 4.06976 19.6013 4.25482 19.7662 4.49225C19.931 4.72968 20.019 5.00882 20.019 5.29437C20.0195 5.48408 19.9809 5.67201 19.9057 5.84736C19.8304 6.02272 19.7199 6.18204 19.5805 6.31619C19.4411 6.45034 19.2756 6.55667 19.0933 6.62908C18.9111 6.70149 18.7158 6.73856 18.5187 6.73815ZM12.0172 7.70033C12.8085 7.70033 13.5821 7.92615 14.2401 8.34922C14.8981 8.77229 15.411 9.37362 15.7138 10.0772C16.0166 10.7807 16.0959 11.5549 15.9415 12.3017C15.7871 13.0486 15.406 13.7347 14.8464 14.2731C14.2869 14.8116 13.5739 15.1783 12.7978 15.3269C12.0216 15.4754 11.2171 15.3992 10.486 15.1078C9.75485 14.8163 9.12994 14.3229 8.69029 13.6897C8.25063 13.0565 8.01596 12.3121 8.01596 11.5506C8.0171 10.5298 8.43901 9.55108 9.18914 8.82925C9.93927 8.10742 10.9563 7.70142 12.0172 7.70033ZM12.0172 5.77546C10.8302 5.77546 9.66984 6.11416 8.68289 6.74874C7.69594 7.38332 6.92671 8.28528 6.47247 9.34054C6.01823 10.3958 5.89937 11.557 6.13095 12.6773C6.36252 13.7975 6.93411 14.8266 7.77344 15.6342C8.61277 16.4419 9.68214 16.9919 10.8463 17.2148C12.0105 17.4376 13.2172 17.3232 14.3139 16.8861C15.4105 16.449 16.3478 15.7088 17.0073 14.7591C17.6667 13.8094 18.0187 12.6928 18.0187 11.5506C18.0187 10.0189 17.3864 8.55 16.2609 7.46696C15.1354 6.38391 13.6089 5.77546 12.0172 5.77546Z" fill="#181818"/>
<path fill-rule="evenodd" clip-rule="evenodd" d="M77.8297 11.6204C77.8297 5.20487 72.276 0.00292969 65.4266 0.00292969C58.5772 0.00292969 53.0234 5.20487 53.0234 11.6204C53.0234 17.4188 57.5583 22.225 63.4886 23.0974V14.9796H60.3385V11.6204H63.4886V9.06095C63.4886 6.14983 65.3407 4.5405 68.1735 4.5405C69.5307 4.5405 70.9504 4.76766 70.9504 4.76766V7.62691H69.3856C67.8457 7.62691 67.364 8.52208 67.364 9.44215V11.6204H70.8037L70.2544 14.9796H67.3646V23.0984C73.2948 22.2266 77.8297 17.4204 77.8297 11.6204Z" fill="#181818"/>
<path d="M129.985 4.4875C129.117 4.86467 128.198 5.11316 127.257 5.22511C128.246 4.64677 128.989 3.72799 129.348 2.64106C128.413 3.18708 127.393 3.5702 126.329 3.77399C125.882 3.30517 125.343 2.9322 124.747 2.67777C124.151 2.42334 123.509 2.29276 122.86 2.29395C120.235 2.29395 118.11 4.38626 118.11 6.96548C118.108 7.32424 118.149 7.68193 118.233 8.03092C116.35 7.94272 114.506 7.46281 112.82 6.62187C111.134 5.78093 109.641 4.59749 108.439 3.14727C108.017 3.85794 107.794 4.66879 107.793 5.49508C107.793 7.11493 108.639 8.54676 109.916 9.38561C109.159 9.36767 108.418 9.16756 107.755 8.80227V8.86013C107.755 11.126 109.396 13.011 111.567 13.4401C111.158 13.5488 110.738 13.6039 110.315 13.604C110.015 13.6045 109.716 13.5754 109.422 13.5172C110.026 15.3733 111.782 16.7231 113.863 16.7617C112.172 18.0638 110.096 18.7676 107.962 18.7624C107.583 18.7619 107.204 18.7393 106.828 18.6949C109 20.0806 111.524 20.8135 114.1 20.8065C122.85 20.8065 127.63 13.6859 127.63 7.51025C127.63 7.30777 127.625 7.10529 127.615 6.90763C128.543 6.24815 129.346 5.42861 129.985 4.4875Z" fill="#181818"/>
</svg>
